# xmcd CD database file
#
# Track frame offsets:
#	150
#	14363
#	28575
#	44915
#	60258
#	73610
#	88680
#	102225
#	119140
#	135558
#	148003
#	163765
#
# Disc length: 2389 seconds
#
# Revision: 1
# Processed by: cddbd v1.5.2PL0 Copyright (c) Steve Scherf et al.
# Submitted via: CDex 1.40Beta9
#
DISCID=ad09530c
DTITLE=Iris McCollins - Liebeskrank 
DYEAR=1995
DGENRE=Country
TTITLE0=Liebeskrank
TTITLE1=Gefährliche Liebe
TTITLE2=Spürst du das Fieber
TTITLE3=Königin der Nacht
TTITLE4=Du bist nicht allein
TTITLE5=Wenn der Himmel weint
TTITLE6=Das geht ganz tief rein
TTITLE7=Halt mich fest
TTITLE8=Ich bin da für dich
TTITLE9=Da muß ich raus
TTITLE10=Es kann nur besser werden
TTITLE11=Unbeschwertes Glück
EXTD=YEAR: 1995 ID3G: 2
EXTT0=
EXTT1=
EXTT2=
EXTT3=
EXTT4=
EXTT5=
EXTT6=
EXTT7=
EXTT8=
EXTT9=
EXTT10=
EXTT11=
PLAYORDER=
